# xmcd
#
# Track frame offsets:
# 150
# 28233
# 60730
# 100203
# 120596
# 148279
# 203322
# 237545
# 262003
# 282649
# 302750
#
# Disc length: 4411 seconds
#
# Revision: 1
# Processed by: cddbd v1.5.2PL0 Copyright (c) Steve Scherf et al.
# Submitted via: CedeCatalogueitor 2.5 http://usuarios.lycos.es/kakasboy
#
DISCID=a911390b
DTITLE=David 'Chainsaw' Dupont - The Real Guitar Hero
DYEAR=2010
DGENRE=
TTITLE0=Cold Sweat
TTITLE1=Shotgun House
TTITLE2=Sacharine
TTITLE3=N.o.
TTITLE4=Blues O Magig
TTITLE5=I'll Be Blues
TTITLE6=Heaven Eyes
TTITLE7=Sweet As A Queen Bee's Honeycomb
TTITLE8=King Of My Heart
TTITLE9=Five Foot Two Mambo
TTITLE10=Funky Foot
EXTD=
EXTT0=
EXTT1=
EXTT2=
EXTT3=
EXTT4=
EXTT5=
EXTT6=
EXTT7=
EXTT8=
EXTT9=
EXTT10=
PLAYORDER=
